HIERARCHY
ROOT Hips
{
	OFFSET 0.00 0.00 0.00
	CHANNELS 6 Xposition Yposition Zposition Xrotation Yrotation Zrotation
	JOINT RightUpLeg
	{
		OFFSET -3.76699 0.00000 0.00000
		CHANNELS 3 Xrotation Yrotation Zrotation
		JOINT RightLeg
		{
			OFFSET 0.00000 -18.01768 0.00000
			CHANNELS 3 Xrotation Yrotation Zrotation
			JOINT RightFoot
			{
				OFFSET 0.00000 -16.88108 0.00000
				CHANNELS 3 Xrotation Yrotation Zrotation
				JOINT RightToeBase
				{
					OFFSET 0.00000 -1.49359 5.57418
					CHANNELS 3 Xrotation Yrotation Zrotation
					End Site
					{
						OFFSET 0.00000 0.00000 2.95275
					}
				}
			}
		}
	}
	JOINT LeftUpLeg
	{
		OFFSET 3.76699 0.00000 0.00000
		CHANNELS 3 Xrotation Yrotation Zrotation
		JOINT LeftLeg
		{
			OFFSET 0.00000 -18.01768 0.00000
			CHANNELS 3 Xrotation Yrotation Zrotation
			JOINT LeftFoot
			{
				OFFSET 0.00000 -16.88108 0.00000
				CHANNELS 3 Xrotation Yrotation Zrotation
				JOINT LeftToeBase
				{
					OFFSET 0.00000 -1.49359 5.57418
					CHANNELS 3 Xrotation Yrotation Zrotation
					End Site
					{
						OFFSET 0.00000 0.00000 2.95275
					}
				}
			}
		}
	}
	JOINT Spine
	{
		OFFSET 0.00000 7.77970 0.00000
		CHANNELS 3 Xrotation Yrotation Zrotation
		JOINT RightShoulder
		{
			OFFSET 0.00000 10.94176 0.00000
			CHANNELS 3 Xrotation Yrotation Zrotation
			JOINT RightArm
			{
				OFFSET -7.70894 0.00000 0.00000
				CHANNELS 3 Xrotation Yrotation Zrotation
				JOINT RightForeArm
				{
					OFFSET -11.52135 0.00000 0.00000
					CHANNELS 3 Yrotation Zrotation Xrotation
					JOINT RightHand
					{
						OFFSET -10.17590 0.00000 0.00000
						CHANNELS 3 Xrotation Yrotation Zrotation
						End Site
						{
							OFFSET -3.93700 0.00000 0.00000
						}
						JOINT RightHandThumb1
						{
							OFFSET 0.00000 0.00000 0.00000
							CHANNELS 3 Xrotation Zrotation Yrotation
							End Site
							{
								OFFSET 0.00000 0.00000 3.93700
							}
						}
					}
				}
			}
		}
		JOINT LeftShoulder
		{
			OFFSET 0.00000 10.94176 0.00000
			CHANNELS 3 Xrotation Yrotation Zrotation
			JOINT LeftArm
			{
				OFFSET 7.70894 0.00000 0.00000
				CHANNELS 3 Xrotation Yrotation Zrotation
				JOINT LeftForeArm
				{
					OFFSET 11.52135 0.00000 0.00000
					CHANNELS 3 Yrotation Zrotation Xrotation
					JOINT LeftHand
					{
						OFFSET 10.17590 0.00000 0.00000
						CHANNELS 3 Xrotation Yrotation Zrotation
						End Site
						{
							OFFSET 3.93700 0.00000 0.00000
						}
						JOINT LeftHandThumb1
						{
							OFFSET 0.00000 0.00000 0.00000
							CHANNELS 3 Xrotation Zrotation Yrotation
							End Site
							{
								OFFSET 0.00000 0.00000 3.93700
							}
						}
					}
				}
			}
		}
		JOINT Head
		{
			OFFSET 0.00000 16.64604 0.00000
			CHANNELS 3 Xrotation Yrotation Zrotation
			End Site
			{
				OFFSET 0.00000 4.52755 0.00000
			}
		}
	}
}
MOTION
Frames: 22
Frame Time: 0.008333
 1.7462 37.1297 7.5115 2.2528 -3.7537 1.4530 8.5952 2.8992 -2.9847 -6.1452 -0.0000 -0.0000 -7.5096 -17.1839 11.8940 13.5889 -0.0000 -0.0000 6.1715 7.9426 4.3267 -4.3359 0.0000 0.0000 -2.2862 11.7371 -17.5905 7.4800 -0.0000 0.0000 -8.2496 -16.0784 -7.4743 -23.7363 -2.7773 -39.9726 -131.5999 31.9213 55.0131 150.0607 0.0000 -45.9262 4.5778 23.6731 -11.2777 32.8623 0.0000 -24.3270 50.7875 11.5039 2.3142 155.4247 -56.2370 112.4551 -130.6937 -0.0000 57.2578 -70.1146 9.1134 86.7211 33.1476 -0.0000 26.2537 29.5009 37.7062 7.6910
 1.7497 37.1290 7.5124 2.2528 -3.8523 1.4653 8.5867 2.8907 -3.0101 -6.1546 0.0000 -0.0000 -7.4904 -17.1057 11.9128 13.5697 -0.0000 0.0000 6.1796 7.9869 4.3022 -4.3085 -0.0000 0.0000 -2.3113 11.7746 -17.5884 7.5012 -0.0000 0.0000 -8.1065 -15.8983 -7.3864 -23.8204 -2.8320 -39.9879 -131.9095 31.9194 55.1813 150.0317 0.0000 -45.9467 4.6322 23.6555 -11.4166 32.8623 0.0000 -24.3270 50.7811 11.4866 2.2885 155.3794 -56.2206 112.4098 -130.8003 -0.0000 57.2182 -69.7247 9.8339 86.3897 33.1476 -0.0000 26.2537 29.1187 37.4865 7.6969
 1.7540 37.1288 7.5133 2.2579 -3.9429 1.4756 8.5759 2.8585 -3.0307 -6.1683 0.0000 0.0000 -7.4756 -17.0066 11.9082 13.5792 -0.0000 -0.0000 6.1763 8.0425 4.2786 -4.2754 0.0000 0.0000 -2.3324 11.7923 -17.5446 7.4457 -0.0000 -0.0000 -7.9852 -15.7222 -7.2985 -23.9091 -2.8873 -40.0223 -132.2098 31.8213 55.3088 150.0214 0.0000 -46.0509 4.6272 23.6057 -11.4265 32.8623 0.0000 -24.3270 50.8110 11.4467 2.2550 155.3124 -56.2373 112.3550 -130.8857 -0.0000 57.1202 -69.3050 10.5205 86.0542 33.1476 -0.0000 26.2537 28.8903 37.2436 7.6164
 1.7578 37.1283 7.5141 2.2664 -4.0199 1.4911 8.5605 2.8124 -3.0518 -6.1811 -0.0000 -0.0000 -7.4685 -16.9094 11.8639 13.3879 -0.0000 -0.0000 6.1454 8.1491 4.2503 -4.2057 0.0000 0.0000 -2.3889 11.7715 -17.5247 7.4581 0.0000 -0.0000 -7.8907 -15.5951 -7.2387 -24.0405 -2.8155 -40.0229 -132.3850 31.7184 55.3545 150.0370 0.0000 -45.9659 4.6237 23.5336 -11.4502 32.8623 0.0000 -24.3270 50.8727 11.4251 2.2160 155.2628 -56.2981 112.3311 -130.9527 -0.0000 57.0825 -68.9376 11.1069 85.7571 33.1476 -0.0000 26.2537 28.7581 36.9878 7.4539
 1.7633 37.1276 7.5155 2.2922 -4.0929 1.4969 8.5335 2.7569 -3.0664 -6.2079 -0.0000 -0.0000 -7.4330 -16.8029 11.8934 13.5690 0.0000 -0.0000 6.1229 8.1963 4.2280 -4.1817 -0.0000 -0.0000 -2.4166 11.8036 -17.4721 7.4127 0.0000 -0.0000 -7.8116 -15.4370 -7.1195 -24.0991 -2.8286 -40.1135 -132.6406 31.5940 55.4021 150.0815 0.0000 -45.7515 4.7015 23.4224 -11.6891 32.8623 0.0000 -24.3270 50.9599 11.3436 2.1457 155.1399 -56.3681 112.2453 -131.0464 -0.0000 57.1169 -68.5844 11.6802 85.4601 33.1476 -0.0000 26.2537 28.7103 36.6769 7.1655
 1.7680 37.1263 7.5167 2.3324 -4.1543 1.5182 8.4906 2.6995 -3.0933 -6.2252 0.0000 -0.0000 -7.4249 -16.6980 11.8920 13.5559 0.0000 0.0000 6.0920 8.2194 4.2005 -4.1666 0.0000 0.0000 -2.4387 11.8231 -17.4849 7.4008 -0.0000 0.0000 -7.7711 -15.2691 -7.0495 -24.1267 -2.8547 -40.1887 -132.8558 31.4822 55.4367 150.1583 0.0000 -45.3094 4.8161 23.3934 -11.9808 32.8623 0.0000 -24.3270 51.0321 11.2577 2.1269 155.1085 -56.4007 112.2147 -131.0924 -0.0000 57.0762 -68.2006 12.2797 85.1378 33.1476 -0.0000 26.2537 28.6964 36.2495 6.8638
 1.7725 37.1251 7.5180 2.3924 -4.2080 1.5357 8.4344 2.6621 -3.1137 -6.2515 -0.0000 -0.0000 -7.4135 -16.6225 11.8600 13.5341 0.0000 -0.0000 6.0433 8.2477 4.1761 -4.1608 0.0000 -0.0000 -2.4209 11.8341 -17.5210 7.2596 0.0000 -0.0000 -7.7708 -15.1142 -6.9717 -24.1693 -2.8056 -40.2722 -132.9888 31.4169 55.4899 150.2241 0.0000 -44.8237 4.8922 23.4174 -12.1541 32.8623 0.0000 -24.3270 51.1194 11.1668 2.1016 155.0414 -56.4297 112.1565 -131.1449 -0.0000 57.0753 -67.8004 12.8935 84.7970 33.1476 -0.0000 26.2537 28.6666 35.8560 6.5659
 1.7776 37.1234 7.5211 2.4569 -4.2492 1.5646 8.3846 2.6060 -3.1457 -6.2840 0.0000 0.0000 -7.4100 -16.5578 11.8605 13.3723 0.0000 -0.0000 5.9978 8.2765 4.1403 -4.1638 0.0000 -0.0000 -2.4525 11.8410 -17.4736 7.3865 -0.0000 0.0000 -7.7953 -14.9688 -6.9015 -24.2073 -2.7417 -40.3651 -133.1370 31.3336 55.6069 150.2506 0.0000 -44.6307 4.8710 23.3358 -12.1415 32.8623 0.0000 -24.3270 51.2286 11.0753 2.0766 154.9364 -56.5063 112.0882 -131.2102 -0.0000 57.1783 -67.4867 13.3927 84.5161 33.1476 -0.0000 26.2537 28.6231 35.4947 6.2622
 1.7839 37.1218 7.5237 2.5313 -4.2869 1.5953 8.3236 2.5464 -3.1800 -6.3155 -0.0000 -0.0000 -7.4038 -16.4822 11.8580 13.3595 0.0000 0.0000 5.9407 8.3270 4.1004 -4.1719 0.0000 -0.0000 -2.4592 11.8254 -17.4619 7.3656 0.0000 -0.0000 -7.8403 -14.8617 -6.8330 -24.2451 -2.6897 -40.4462 -133.2555 31.2447 55.7761 150.2385 0.0000 -44.6597 4.7900 23.2990 -11.9618 32.8623 0.0000 -24.3270 51.2309 10.9650 2.0489 155.0814 -56.1526 112.0242 -131.0947 -0.0000 56.0173 -66.4099 14.4065 83.7993 33.1476 -0.0000 26.2537 28.5706 35.2088 5.9659
 1.7901 37.1209 7.5265 2.6026 -4.3125 1.6227 8.2838 2.5100 -3.2198 -6.3785 0.0000 0.0000 -7.3678 -16.4122 11.8913 13.2774 -0.0000 0.0000 5.8877 8.3607 4.0665 -4.1834 0.0000 0.0000 -2.4612 11.8103 -17.4814 7.3669 -0.0000 0.0000 -7.8785 -14.7405 -6.7667 -24.2945 -2.5974 -40.4939 -133.4140 31.2149 55.9795 150.1560 0.0000 -44.7836 4.6476 23.3086 -11.6099 32.8623 0.0000 -24.3270 51.2441 10.8835 2.0422 155.1868 -56.0414 112.0207 -131.0951 -0.0000 55.5277 -65.6584 15.3060 83.1900 33.1476 -0.0000 26.2537 28.4888 34.8829 5.7006
 1.7963 37.1196 7.5291 2.6760 -4.3333 1.6560 8.2313 2.4648 -3.2583 -6.4216 0.0000 -0.0000 -7.3551 -16.3556 11.9084 13.3431 0.0000 -0.0000 5.8332 8.3936 4.0264 -4.1981 -0.0000 0.0000 -2.4445 11.7919 -17.4957 7.3398 0.0000 -0.0000 -7.9239 -14.6225 -6.7081 -24.3143 -2.5453 -40.5429 -133.6196 31.2156 56.1707 150.0663 0.0000 -44.8395 4.4709 23.2642 -11.1977 32.8623 0.0000 -24.3270 51.2652 10.8305 2.0212 155.1881 -56.0031 111.9989 -131.1712 -0.0000 55.5150 -65.3000 15.7542 82.8817 33.1476 -0.0000 26.2537 28.4298 34.5971 5.4433
 1.8024 37.1184 7.5322 2.7438 -4.3531 1.6929 8.1968 2.4387 -3.3010 -6.4854 -0.0000 0.0000 -7.3338 -16.3294 11.9137 13.3613 -0.0000 -0.0000 5.7832 8.4552 3.9806 -4.2124 -0.0000 0.0000 -2.4417 11.7547 -17.5104 7.3504 -0.0000 -0.0000 -7.9680 -14.4628 -6.6690 -24.3292 -2.4924 -40.5808 -133.7859 31.3152 56.2900 149.9740 0.0000 -44.7173 4.4369 23.2752 -11.1096 32.8623 0.0000 -24.3270 51.2773 10.7602 2.0364 155.2166 -56.0784 112.0355 -131.2591 -0.0000 55.6359 -65.0193 16.1710 82.6069 33.1476 -0.0000 26.2537 28.3803 34.2981 5.2297
 1.8100 37.1176 7.5369 2.8000 -4.3629 1.7362 8.1717 2.3930 -3.3466 -6.5377 0.0000 0.0000 -7.3254 -16.3018 11.8890 13.3419 0.0000 -0.0000 5.7457 8.5009 3.9269 -4.2215 -0.0000 -0.0000 -2.4338 11.7167 -17.5291 7.3756 0.0000 -0.0000 -8.0055 -14.3252 -6.6349 -24.3674 -2.3916 -40.6159 -133.9474 31.4710 56.3814 149.8779 0.0000 -44.6033 4.4273 23.2435 -11.1000 32.8623 0.0000 -24.3270 51.2781 10.7018 2.0338 155.2502 -56.0529 112.0386 -131.3413 -0.0000 55.4715 -64.5003 16.7961 82.1525 33.1476 -0.0000 26.2537 28.3883 33.9983 4.9716
 1.8165 37.1164 7.5411 2.8482 -4.3582 1.7684 8.1555 2.3644 -3.3849 -6.5903 -0.0000 -0.0000 -7.3030 -16.2884 11.8784 13.3070 0.0000 -0.0000 5.7128 8.5237 3.8855 -4.2323 0.0000 -0.0000 -2.4270 11.6812 -17.5110 7.3302 0.0000 0.0000 -8.0354 -14.1998 -6.5997 -24.3527 -2.3852 -40.6566 -134.1372 31.6772 56.4284 149.8188 0.0000 -44.3444 4.5075 23.2677 -11.2860 32.8623 0.0000 -24.3270 51.2923 10.6468 2.0446 155.2984 -56.0285 112.0801 -131.4020 -0.0000 55.1291 -63.9234 17.4446 81.6536 33.1476 -0.0000 26.2537 28.4108 33.7443 4.7569
 1.8228 37.1153 7.5454 2.8895 -4.3510 1.7975 8.1416 2.3482 -3.4210 -6.6284 0.0000 -0.0000 -7.3018 -16.2784 11.8778 13.3508 -0.0000 0.0000 5.6842 8.5284 3.8480 -4.2379 -0.0000 0.0000 -2.4121 11.6869 -17.6002 7.3081 0.0000 -0.0000 -8.0547 -14.0631 -6.5548 -24.3438 -2.3673 -40.7150 -134.3043 31.9318 56.4561 149.7598 0.0000 -44.1825 4.5094 23.2571 -11.2952 32.8623 0.0000 -24.3270 51.2614 10.5587 2.0759 155.5058 -56.2780 112.2409 -131.5039 -0.0000 54.3314 -63.0746 18.3140 80.9326 33.1476 -0.0000 26.2537 28.4651 33.4836 4.5177
 1.8297 37.1143 7.5498 2.9140 -4.3341 1.8226 8.1381 2.3356 -3.4520 -6.6532 -0.0000 0.0000 -7.3140 -16.3043 11.8667 13.3752 0.0000 0.0000 5.6654 8.5460 3.8110 -4.2362 -0.0000 -0.0000 -2.4402 11.6558 -17.5104 7.3238 0.0000 -0.0000 -8.0628 -13.9541 -6.5191 -24.3522 -2.3132 -40.7514 -134.3997 32.2477 56.4747 149.7044 0.0000 -44.0077 4.5549 23.3125 -11.3819 32.8623 0.0000 -24.3270 51.2683 10.5038 2.0954 155.5547 -56.3168 112.2921 -131.5045 -0.0000 54.0938 -62.5849 18.8249 80.4986 33.1476 -0.0000 26.2537 28.5309 33.2533 4.2861
 1.8354 37.1135 7.5544 2.9357 -4.3131 1.8423 8.1545 2.3896 -3.4839 -6.7015 -0.0000 -0.0000 -7.2901 -16.3761 11.8690 13.3214 0.0000 0.0000 5.6460 8.5451 3.7867 -4.2283 -0.0000 -0.0000 -2.4509 11.6360 -17.5263 7.3723 0.0000 0.0000 -8.0743 -13.8627 -6.4805 -24.3630 -2.3013 -40.8013 -134.4817 32.5013 56.5491 149.6735 0.0000 -43.9564 4.5310 23.3078 -11.3256 32.8623 0.0000 -24.3270 51.2933 10.4629 2.0989 155.5448 -56.3436 112.3101 -131.5112 -0.0000 54.1141 -62.2447 19.2029 80.1800 33.1476 -0.0000 26.2537 28.5999 33.0521 4.0551
 1.8433 37.1125 7.5590 2.9542 -4.2855 1.8708 8.1498 2.3831 -3.5204 -6.7076 0.0000 0.0000 -7.3162 -16.4112 11.8759 13.5469 -0.0000 0.0000 5.6300 8.5320 3.7456 -4.2216 0.0000 0.0000 -2.4400 11.6371 -17.5714 7.2836 -0.0000 -0.0000 -8.0809 -13.7568 -6.4534 -24.3665 -2.3118 -40.8671 -134.5742 32.6774 56.6179 149.6526 0.0000 -43.9031 4.3991 23.2938 -11.0087 32.8623 0.0000 -24.3270 51.2868 10.4077 2.1116 155.5419 -56.3524 112.3166 -131.5066 -0.0000 54.0793 -61.9114 19.5064 79.8955 33.1476 -0.0000 26.2537 28.6316 32.8311 3.8584
 1.8514 37.1119 7.5652 2.9564 -4.2559 1.8911 8.1589 2.3855 -3.5518 -6.7014 -0.0000 -0.0000 -7.3237 -16.4368 11.8435 13.4972 -0.0000 0.0000 5.6401 8.4983 3.7118 -4.2269 -0.0000 0.0000 -2.4595 11.6483 -17.5070 7.3804 -0.0000 -0.0000 -8.0766 -13.6454 -6.4152 -24.3640 -2.2948 -40.9321 -134.6896 32.8507 56.7036 149.6114 0.0000 -43.8481 4.2918 23.2838 -10.7498 32.8623 0.0000 -24.3270 51.2865 10.3308 2.1247 155.4970 -56.3981 112.2990 -131.5252 -0.0000 54.0816 -61.5809 19.8675 79.5797 33.1476 -0.0000 26.2537 28.6908 32.5740 3.6500
 1.8596 37.1115 7.5707 2.9545 -4.2160 1.9049 8.1616 2.3544 -3.5726 -6.6780 -0.0000 -0.0000 -7.3586 -16.4448 11.8237 13.5458 0.0000 -0.0000 5.6431 8.4787 3.6866 -4.2227 -0.0000 -0.0000 -2.4716 11.6265 -17.4802 7.3394 0.0000 -0.0000 -8.0625 -13.5460 -6.3728 -24.3924 -2.2494 -40.9841 -134.7857 32.9671 56.8010 149.5707 0.0000 -43.7697 4.1561 23.2410 -10.4340 32.8623 0.0000 -24.3270 51.2647 10.2557 2.1255 155.4466 -56.4364 112.2708 -131.5658 -0.0000 54.0076 -61.2215 20.2096 79.2560 33.1476 -0.0000 26.2537 28.7197 32.3301 3.4732
 1.8673 37.1106 7.5761 2.9565 -4.1871 1.9307 8.1571 2.3445 -3.6019 -6.6425 0.0000 -0.0000 -7.4042 -16.4731 11.7704 13.4679 0.0000 -0.0000 5.6510 8.4548 3.6493 -4.2241 -0.0000 0.0000 -2.4537 11.6312 -17.5375 7.2561 0.0000 -0.0000 -8.0649 -13.4250 -6.3547 -24.4288 -2.1781 -41.0218 -134.8526 33.0398 56.8882 149.5269 0.0000 -43.6228 3.9965 23.2554 -10.0346 32.8623 0.0000 -24.3270 51.2665 10.1779 2.1365 155.3696 -56.4434 112.2314 -131.6177 -0.0000 53.9007 -60.8176 20.5899 78.8883 33.1476 -0.0000 26.2537 28.7487 32.1128 3.3324
 1.8745 37.1094 7.5816 2.9562 -4.1516 1.9491 8.1570 2.3277 -3.6213 -6.6122 -0.0000 -0.0000 -7.4430 -16.5010 11.7167 13.4747 -0.0000 0.0000 5.6588 8.4282 3.6216 -4.2264 0.0000 -0.0000 -2.4572 11.6089 -17.5095 7.2139 -0.0000 -0.0000 -8.0608 -13.3017 -6.3327 -24.4494 -2.1548 -41.0574 -134.9735 33.0524 56.9882 149.4798 0.0000 -43.5667 3.8703 23.1867 -9.7496 32.8623 0.0000 -24.3270 51.2276 10.0910 2.1614 155.3013 -56.4459 112.1680 -131.6669 -0.0000 53.7986 -60.3857 21.0020 78.4854 33.1476 -0.0000 26.2537 28.7833 31.9108 3.1692
